<?xml version="1.0" encoding="UTF-8"?>
<svg width="283.95mm" height="314.98mm" version="1.1" viewBox="0 0 283.95 314.98" xmlns="http://www.w3.org/2000/svg">
 <g transform="translate(-67.033 -7.3973)">
  <g fill="none" stroke="#000">
   <g stroke-linecap="square">
    <rect x="102.05" y="17.387" width="87.69" height="37.042" style="paint-order:markers stroke fill"/>
    <rect x="102.05" y="54.429" width="87.69" height="37.042" style="paint-order:markers stroke fill"/>
    <rect x="102.05" y="91.47" width="87.69" height="37.042" style="paint-order:markers stroke fill"/>
    <rect x="102.05" y="128.51" width="87.69" height="37.042" style="paint-order:markers stroke fill"/>
    <rect x="102.05" y="165.55" width="87.69" height="37.042" style="paint-order:markers stroke fill"/>
    <rect x="102.05" y="202.6" width="87.69" height="37.042" style="paint-order:markers stroke fill"/>
    <rect x="102.05" y="239.64" width="87.69" height="37.042" style="paint-order:markers stroke fill"/>
    <rect x="102.05" y="276.68" width="87.69" height="37.042" style="paint-order:markers stroke fill"/>
   </g>
   <path d="m198.31 29.648h8.8281v124.43h-7.223"/>
   <path d="m198.46 177h8.8281v124.43h-7.223"/>
  </g>
  <path d="m207.38 16.571 10.654-6.1512v6.1512 6.1512l-5.3271-3.0756z" style="paint-order:markers stroke fill"/>
  <path d="m215.82 16.571h42.496" fill="none" stroke="#000" stroke-width="2"/>
  <path d="m208.39 313.77 10.654-6.1512v6.1512 6.1512l-5.3271-3.0756z" style="paint-order:markers stroke fill"/>
  <path d="m216.83 313.77h39.289" fill="none" stroke="#000" stroke-width="2"/>
  <g fill="#000000" font-family="sans-serif" letter-spacing="0px" stroke-width=".26458" word-spacing="0px">
   <text x="228.3119" y="244.81888" font-size="19.756px" style="line-height:1.25" xml:space="preserve"><tspan x="228.3119" y="244.81888" font-size="19.756px" stroke-width=".26458">int b</tspan></text>
   <g font-size="22.578px">
    <text x="228.07074" y="97.018845" style="line-height:1.25" xml:space="preserve"><tspan x="228.07074" y="97.018845" font-size="22.578px" stroke-width=".26458">int a</tspan></text>
    <text x="272.8988" y="23.8125" style="line-height:1.25" xml:space="preserve"><tspan x="272.8988" y="23.8125" font-size="22.578px" stroke-width=".26458">Top</tspan></text>
    <text x="270.25296" y="322.03568" style="line-height:1.25" xml:space="preserve"><tspan x="270.25296" y="322.03568" font-size="22.578px" stroke-width=".26458">Bottom</tspan></text>
    <text x="140.03984" y="192.10907" style="line-height:1.25" xml:space="preserve"><tspan x="140.03984" y="192.10907" font-size="22.578px" stroke-width=".26458">0</tspan></text>
    <text x="140.03352" y="230.92723" style="line-height:1.25" xml:space="preserve"><tspan x="140.03352" y="230.92723" font-size="22.578px" stroke-width=".26458">0</tspan></text>
    <text x="140.03354" y="267.96893" style="line-height:1.25" xml:space="preserve"><tspan x="140.03354" y="267.96893" font-size="22.578px" stroke-width=".26458">0</tspan></text>
    <text x="133.22997" y="304.63263" style="line-height:1.25" xml:space="preserve"><tspan x="133.22997" y="304.63263" font-size="22.578px" stroke-width=".26458">90</tspan></text>
   </g>
  </g>
  <path transform="rotate(90 91.454 147.28)" d="m51.118 165.55 10.654-6.1512v6.1512l1e-6 6.1512-5.3271-3.0756z" style="paint-order:markers stroke fill"/>
  <path d="m73.185 115.39v108.26" fill="none" stroke="#000" stroke-width="2"/>
  <g fill="#000000" font-family="sans-serif" font-size="22.578px" letter-spacing="0px" stroke-width=".26458" word-spacing="0px">
   <text x="139.47716" y="43.626293" style="line-height:1.25" xml:space="preserve"><tspan x="139.47716" y="43.626293" font-size="22.578px" stroke-width=".26458">0</tspan></text>
   <text x="139.47083" y="82.444458" style="line-height:1.25" xml:space="preserve"><tspan x="139.47083" y="82.444458" font-size="22.578px" stroke-width=".26458">0</tspan></text>
   <text x="139.47086" y="119.48615" style="line-height:1.25" xml:space="preserve"><tspan x="139.47086" y="119.48615" font-size="22.578px" stroke-width=".26458">0</tspan></text>
   <text x="132.66728" y="156.14986" style="line-height:1.25" xml:space="preserve"><tspan x="132.66728" y="156.14986" font-size="22.578px" stroke-width=".26458">90</tspan></text>
  </g>
 </g>
</svg>
