<svg xmlns="http://www.w3.org/2000/svg" viewBox="0 0 100 100" height="100" width="100" version="1.1" id="svg8"><g transform="matrix(0.27200168,0,0,0.27200168,-32.751394,-22.00178)" id="g6"><path transform="matrix(0.89317,0,0,0.90311,166.45,120.79)" d="M 357.09,159.11 A 203.29,203.29 0 0 1 153.8,362.4 203.29,203.29 0 0 1 -49.49,159.11 203.29,203.29 0 0 1 153.8,-44.18 203.29,203.29 0 0 1 357.09,159.11 Z" id="path2" style="color:#000000;fill:#800080" /><path style="fill:#ffffff" d="m 203.22,217.47 c 62.935,162.29 258.25,138.43 258.25,138.43 -47.143,13.571 -93.821,5.2197 -93.821,5.2197 -102.5,25.114 -201.73,-51.464 -225.85,-121.63 0.42777,0.75066 9.4168,11.913 39.261,10.946 -32.071,0.3426 -43.634,-22.242 -44.468,-34.457 -2.1299,-31.199 12.165,-58.283 52.107,-70.71 96.546,-26.512 95.411,187.23 188.41,198.64 0,0 -102.93,2.2926 -173.89,-126.45 z" id="path4" /></g></svg>
